<?xml version="1.0" encoding="utf-8"?>
<!-- Generator: Adobe Illustrator 17.0.0, SVG Export Plug-In . SVG Version: 6.00 Build 0)  -->
<!DOCTYPE svg PUBLIC "-//W3C//DTD SVG 1.1//EN" "http://www.w3.org/Graphics/SVG/1.1/DTD/svg11.dtd">
<svg version="1.1" id="Calque_1" xmlns="http://www.w3.org/2000/svg" xmlns:xlink="http://www.w3.org/1999/xlink" x="0px" y="0px"
	 width="400px" height="400px" viewBox="0 0 400 400" enable-background="new 0 0 400 400" xml:space="preserve">
<g>
	<path fill="#FF002F" d="M108.689,181.458v-29.25h-9.75v-9.75h-9.75v-29.25h19.5v29.25h19.5v-29.25h19.5v29.25h-9.75v9.75h-9.75
		v29.25H108.689z"/>
	<path fill="#FF002F" d="M167.189,181.458v-9.75h-9.75v-48.75h9.75v-9.75h48.75v9.75h9.75v48.75h-9.75v9.75H167.189z
		 M176.939,171.708h29.25v-48.75h-29.25V171.708z"/>
	<path fill="#FF002F" d="M245.189,181.458v-9.75h-9.75v-58.5h19.5v58.5h29.25v-58.5h19.5v58.5h-9.75v9.75H245.189z"/>
	<path fill="#FF002F" d="M50.189,275.058v-68.25h19.5v58.5h39v9.75H50.189z"/>
	<path fill="#FF002F" d="M128.189,275.058v-9.75h-9.75v-48.75h9.75v-9.75h48.75v9.75h9.75v48.75h-9.75v9.75H128.189z
		 M137.939,265.308h29.25v-48.75h-29.25V265.308z"/>
	<path fill="#FF002F" d="M206.189,275.058v-9.75h-9.75v-9.75h19.5v9.75h29.25v-19.5h-39v-9.75h-9.75v-19.5h9.75v-9.75h48.75v9.75
		h9.75v9.75h-19.5v-9.75h-29.25v19.5h39v9.75h9.75v19.5h-9.75v9.75H206.189z"/>
	<path fill="#FF002F" d="M297.397,275.058v-58.5h-19.5v-9.75h58.5v9.75h-19.5v58.5H297.397z"/>
</g>
</svg>
