<?xml version="1.0" encoding="utf-8"?>
<!-- Generator: Adobe Illustrator 17.0.0, SVG Export Plug-In . SVG Version: 6.00 Build 0)  -->
<!DOCTYPE svg PUBLIC "-//W3C//DTD SVG 1.1//EN" "http://www.w3.org/Graphics/SVG/1.1/DTD/svg11.dtd">
<svg version="1.1" id="Calque_1" xmlns="http://www.w3.org/2000/svg" xmlns:xlink="http://www.w3.org/1999/xlink" x="0px" y="0px"
	 width="400px" height="400px" viewBox="0 0 400 400" enable-background="new 0 0 400 400" xml:space="preserve">
<g>
	<path fill="#FF001F" d="M116.984,168.842v-29.25h-9.75v-9.75h-9.75v-29.25h19.5v29.25h19.5v-29.25h19.5v29.25h-9.75v9.75h-9.75
		v29.25H116.984z"/>
	<path fill="#FF001F" d="M175.484,168.842v-9.75h-9.75v-48.75h9.75v-9.75h48.75v9.75h9.75v48.75h-9.75v9.75H175.484z
		 M185.234,159.092h29.25v-48.75h-29.25V159.092z"/>
	<path fill="#FF001F" d="M253.484,168.842v-9.75h-9.75v-58.5h19.5v58.5h29.25v-58.5h19.5v58.5h-9.75v9.75H253.484z"/>
	<path fill="#FF001F" d="M19.484,262.442v-68.25h19.5v58.5h39v9.75H19.484z"/>
	<path fill="#FF001F" d="M97.484,262.442v-9.75h-9.75v-48.75h9.75v-9.75h48.75v9.75h9.75v48.75h-9.75v9.75H97.484z M107.234,252.692
		h29.25v-48.75h-29.25V252.692z"/>
	<path fill="#FF001F" d="M175.484,262.442v-9.75h-9.75v-48.75h9.75v-9.75h48.75v9.75h9.75v48.75h-9.75v9.75H175.484z
		 M185.234,252.692h29.25v-48.75h-29.25V252.692z"/>
	<path fill="#FF001F" d="M253.484,262.442v-9.75h-9.75v-9.75h19.5v9.75h29.25v-19.5h-39v-9.75h-9.75v-19.5h9.75v-9.75h48.75v9.75
		h9.75v9.75h-19.5v-9.75h-29.25v19.5h39v9.75h9.75v19.5h-9.75v9.75H253.484z"/>
	<path fill="#FF001F" d="M321.734,262.442v-68.25h68.25v9.75h-48.75v19.5h39v9.75h-39v19.5h48.75v9.75H321.734z"/>
</g>
</svg>
