<?xml version="1.0" encoding="utf-8"?>
<!-- Generator: Adobe Illustrator 17.0.0, SVG Export Plug-In . SVG Version: 6.00 Build 0)  -->
<!DOCTYPE svg PUBLIC "-//W3C//DTD SVG 1.1//EN" "http://www.w3.org/Graphics/SVG/1.1/DTD/svg11.dtd">
<svg version="1.1" id="Calque_1" xmlns="http://www.w3.org/2000/svg" xmlns:xlink="http://www.w3.org/1999/xlink" x="0px" y="0px"
	 width="400px" height="400px" viewBox="0 0 400 400" enable-background="new 0 0 400 400" xml:space="preserve">
<g>
	<path fill="#8CC63F" d="M117.125,191.327v-29.25h-9.75v-9.75h-9.75v-29.25h19.5v29.25h19.5v-29.25h19.5v29.25h-9.75v9.75h-9.75
		v29.25H117.125z"/>
	<path fill="#8CC63F" d="M175.625,191.327v-9.75h-9.75v-48.75h9.75v-9.75h48.75v9.75h9.75v48.75h-9.75v9.75H175.625z
		 M185.375,181.577h29.25v-48.75h-29.25V181.577z"/>
	<path fill="#8CC63F" d="M253.625,191.327v-9.75h-9.75v-58.5h19.5v58.5h29.25v-58.5h19.5v58.5h-9.75v9.75H253.625z"/>
	<path fill="#8CC63F" d="M97.625,284.927v-9.75h-9.75v-58.5h19.5v39h9.75v-39h9.75v39h9.75v-39h19.5v58.5h-9.75v9.75h-9.75v-9.75
		h-9.75v-9.75h-9.75v9.75h-9.75v9.75H97.625z"/>
	<path fill="#8CC63F" d="M175.625,284.927v-9.75h-9.75v-48.75h9.75v-9.75h48.75v9.75h9.75v48.75h-9.75v9.75H175.625z
		 M185.375,275.177h29.25v-48.75h-29.25V275.177z"/>
	<path fill="#8CC63F" d="M243.875,284.927v-68.25h19.5v9.75h9.75v9.75h9.75v9.75h9.75v-29.25h19.5v68.25h-19.5v-19.5h-9.75v-9.75
		h-9.75v-9.75h-9.75v39H243.875z"/>
</g>
</svg>
